{"accessors" : [{"bufferView" : 0, "byteOffset" : 0, "componentType" : 5123, "count" : 4200, "type" : "SCALAR", "max" : [3869], "min" : [0]}, {"bufferView" : 1, "byteOffset" : 0, "componentType" : 5126, "count" : 3870, "type" : "VEC3", "max" : [46.00307846069336, 100.80638885498047, 10.120682716369629], "min" : [-39.61721420288086, 27.116979598999023, 0], "name" : "POSITION"}, {"bufferView" : 1, "byteOffset" : 12, "componentType" : 5126, "count" : 3870, "type" : "VEC2", "max" : [1, 1], "min" : [0, 0], "name" : "TEXCOORD_0"}, {"bufferView" : 1, "byteOffset" : 20, "componentType" : 5126, "count" : 3870, "type" : "VEC3", "max" : [0.9999880194664001, 1.0000044107437134, 1.0000044107437134], "min" : [-0.9999653100967407, -0.9999985098838806, -1.0000044107437134], "name" : "NORMAL"}], "asset" : {"generator" : "Aspose.3D 24.1.0", "version" : "2.0"}, "buffers" : [{"uri" : "data:application/octet-stream;base64,", "byteLength" : 142808}], "bufferViews" : [{"buffer" : 0, "byteOffset" : 0, "byteLength" : 8400, "target" : 34963}, {"buffer" : 0, "byteOffset" : 8404, "byteLength" : 134400, "byteStride" : 32, "target" : 34962}], "meshes" : [{"primitives" : [{"attributes" : {"POSITION" : 1, "TEXCOORD_0" : 2, "NORMAL" : 3}, "indices" : 0, "mode" : 4}], "name" : ""}], "nodes" : [{"mesh" : 0, "name" : "Extrude"}], "scene" : 0, "scenes" : [{"nodes" : [0]}]}